<svg width="17" height="22" viewBox="0 0 17 22" fill="none" xmlns="http://www.w3.org/2000/svg">
<path fill-rule="evenodd" clip-rule="evenodd" d="M0.956277 3.53906L16.6958 19.078L15.0411 20.5973L12.5568 18.1511L10.1013 20.4062C9.54268 20.9238 8.87935 21.3314 8.1503 21.605C7.42125 21.8786 6.64122 22.0126 5.85611 21.9993H5.84956C5.06544 21.9876 4.29175 21.8287 3.57413 21.5321C2.85651 21.2355 2.20949 20.8071 1.67123 20.2722C0.566616 19.1863 -0.0338534 17.7339 0.00147513 16.2335C0.0248623 14.733 0.680266 13.3021 1.82458 12.2532L3.46943 10.7517L5.06842 12.3239L3.42225 13.8272C2.71867 14.4717 2.31578 15.3512 2.30165 16.2734C2.27955 17.1942 2.64766 18.0856 3.32526 18.7522C3.65566 19.0804 4.05275 19.3432 4.49315 19.5252C4.93355 19.7072 5.40834 19.8047 5.88953 19.8118H5.89347C6.37611 19.82 6.85562 19.7376 7.30377 19.5693C7.75192 19.4011 8.15965 19.1504 8.50295 18.8321L10.9565 16.5752L0.954317 6.71175L0.956277 3.53906Z" fill="#014F6E"/>
<path fill-rule="evenodd" clip-rule="evenodd" d="M12.3553 6.0209V8.28578C12.8645 8.46402 13.2878 8.75044 13.6757 9.13212C14.3535 9.79864 14.7216 10.6901 14.6993 11.6109C14.6848 12.5331 14.282 13.4124 13.5787 14.0571L13.3645 14.2458L14.9739 15.8088L15.1771 15.6305C16.3213 14.5817 16.9763 13.1507 16.9989 11.6502C17.034 10.1501 16.4338 8.69808 15.3298 7.61215C14.5282 6.81712 13.4929 6.26329 12.3553 6.0209ZM2.45732 1.34853L1.31641 2.38724L2.91407 3.96068L4.05433 2.92197C4.3125 2.68337 4.61878 2.49542 4.95526 2.36909C5.29175 2.24276 5.6517 2.18059 6.0141 2.18619C6.37649 2.1918 6.73407 2.26508 7.06593 2.40175C7.3978 2.53843 7.69729 2.73575 7.94693 2.9822C8.99937 4.01907 8.96661 5.68039 7.87353 6.68407L6.74179 7.71541L8.33947 9.28885L9.47121 8.25812C11.4765 6.41548 11.5355 3.36757 9.60096 1.46285C9.143 1.01048 8.59354 0.648193 7.98467 0.397148C7.3758 0.146103 6.71971 0.0113258 6.0547 0.000683623C5.38968 -0.00995858 4.72907 0.103747 4.11143 0.335164C3.49378 0.566581 2.93147 0.911072 2.45732 1.34853Z" fill="#3F97B5"/>
</svg>
