<svg width="40" height="40" viewBox="0 0 40 40" fill="none" xmlns="http://www.w3.org/2000/svg">
<path d="M30 20C30 14.4766 25.5234 10 20 10C14.4766 10 10 14.4766 10 20C10 24.9922 13.6562 29.1289 18.4375 29.8789V22.8906H15.8984V20H18.4375V17.7969C18.4375 15.291 19.9297 13.9062 22.2148 13.9062C23.3086 13.9062 24.4531 14.1016 24.4531 14.1016V16.5625H23.1914C21.9492 16.5625 21.5625 17.334 21.5625 18.125V20H24.3359L23.8926 22.8906H21.5625V29.8789C26.3438 29.1289 30 24.9922 30 20Z" fill="#1877F2"/>
<path d="M23.8926 22.8906L24.3359 20H21.5625V18.125C21.5625 17.334 21.9492 16.5625 23.1914 16.5625H24.4531V14.1016C24.4531 14.1016 23.3086 13.9062 22.2148 13.9062C19.9297 13.9062 18.4375 15.291 18.4375 17.7969V20H15.8984V22.8906H18.4375V29.8789C18.9473 29.959 19.4688 30 20 30C20.5312 30 21.0527 29.959 21.5625 29.8789V22.8906H23.8926Z" fill="white"/>
</svg>
