<svg width="40" height="40" viewBox="0 0 40 40" fill="none" xmlns="http://www.w3.org/2000/svg">
<path d="M19.996 11.8019C22.6667 11.8019 22.9802 11.8139 24.0357 11.8615C25.0119 11.9051 25.5397 12.0679 25.8929 12.2068C26.3611 12.3894 26.6944 12.6037 27.0436 12.953C27.3929 13.3022 27.6111 13.6356 27.7897 14.104C27.9246 14.4572 28.0913 14.9851 28.1349 15.9615C28.1825 17.0173 28.1944 17.3308 28.1944 20.002C28.1944 22.6732 28.1825 22.9867 28.1349 24.0425C28.0913 25.0189 27.9286 25.5467 27.7897 25.9C27.6071 26.3683 27.3929 26.7017 27.0436 27.051C26.6944 27.4003 26.3611 27.6186 25.8929 27.7972C25.5397 27.9321 25.0119 28.0988 24.0357 28.1425C22.9802 28.1901 22.6667 28.202 19.996 28.202C17.3254 28.202 17.0119 28.1901 15.9563 28.1425C14.9802 28.0988 14.4524 27.9361 14.0992 27.7972C13.631 27.6146 13.2976 27.4003 12.9484 27.051C12.5992 26.7017 12.381 26.3683 12.2024 25.9C12.0675 25.5467 11.9008 25.0189 11.8571 24.0425C11.8095 22.9867 11.7976 22.6732 11.7976 20.002C11.7976 17.3308 11.8095 17.0173 11.8571 15.9615C11.9008 14.9851 12.0635 14.4572 12.2024 14.104C12.3849 13.6356 12.5992 13.3022 12.9484 12.953C13.2976 12.6037 13.631 12.3854 14.0992 12.2068C14.4524 12.0718 14.9802 11.9051 15.9563 11.8615C17.0119 11.8099 17.3294 11.8019 19.996 11.8019ZM19.996 10C17.2817 10 16.9405 10.0119 15.873 10.0595C14.8095 10.1072 14.0833 10.2778 13.4484 10.5239C12.7897 10.7779 12.2341 11.1232 11.6786 11.6789C11.123 12.2346 10.7817 12.7942 10.5238 13.4491C10.2778 14.0841 10.1071 14.8105 10.0595 15.8782C10.0119 16.9419 10 17.2832 10 19.998C10 22.7128 10.0119 23.0542 10.0595 24.1219C10.1071 25.1856 10.2778 25.9119 10.5238 26.5509C10.7778 27.2098 11.123 27.7654 11.6786 28.3211C12.2341 28.8768 12.7937 29.2181 13.4484 29.4761C14.0833 29.7222 14.8095 29.8928 15.877 29.9405C16.9444 29.9881 17.2817 30 20 30C22.7183 30 23.0556 29.9881 24.123 29.9405C25.1865 29.8928 25.9127 29.7222 26.5516 29.4761C27.2103 29.2221 27.7659 28.8768 28.3214 28.3211C28.877 27.7654 29.2183 27.2058 29.4762 26.5509C29.7222 25.9159 29.8929 25.1895 29.9405 24.1219C29.9881 23.0542 30 22.7168 30 19.998C30 17.2792 29.9881 16.9419 29.9405 15.8742C29.8929 14.8105 29.7222 14.0841 29.4762 13.4451C29.2222 12.7863 28.877 12.2306 28.3214 11.6749C27.7659 11.1193 27.2063 10.7779 26.5516 10.5199C25.9167 10.2739 25.1905 10.1032 24.123 10.0556C23.0516 10.0119 22.7103 10 19.996 10Z" fill="url(#paint0_linear)"/>
<path d="M19.9959 14.866C17.1626 14.866 14.861 17.1641 14.861 20.0019C14.861 22.8398 17.1586 25.1379 19.9959 25.1379C22.8332 25.1379 25.1309 22.8398 25.1309 20.0019C25.1309 17.1641 22.8332 14.866 19.9959 14.866ZM19.9959 23.332C18.1547 23.332 16.6626 21.8396 16.6626 19.998C16.6626 18.1563 18.1547 16.664 19.9959 16.664C21.8372 16.664 23.3293 18.1563 23.3293 19.998C23.3293 21.8396 21.8372 23.332 19.9959 23.332Z" fill="url(#paint1_linear)"/>
<path d="M25.3337 15.8582C25.9956 15.8582 26.5322 15.3215 26.5322 14.6595C26.5322 13.9975 25.9956 13.4609 25.3337 13.4609C24.6719 13.4609 24.1353 13.9975 24.1353 14.6595C24.1353 15.3215 24.6719 15.8582 25.3337 15.8582Z" fill="url(#paint2_linear)"/>
<defs>
<linearGradient id="paint0_linear" x1="30" y1="10" x2="10" y2="32.2727" gradientUnits="userSpaceOnUse">
<stop stop-color="#C1289D"/>
<stop offset="0.552083" stop-color="#F12415"/>
<stop offset="1" stop-color="#FDB41D"/>
</linearGradient>
<linearGradient id="paint1_linear" x1="30" y1="10" x2="10" y2="32.2727" gradientUnits="userSpaceOnUse">
<stop stop-color="#C1289D"/>
<stop offset="0.552083" stop-color="#F12415"/>
<stop offset="1" stop-color="#FDB41D"/>
</linearGradient>
<linearGradient id="paint2_linear" x1="30" y1="10" x2="10" y2="32.2727" gradientUnits="userSpaceOnUse">
<stop stop-color="#C1289D"/>
<stop offset="0.552083" stop-color="#F12415"/>
<stop offset="1" stop-color="#FDB41D"/>
</linearGradient>
</defs>
</svg>
