<svg width="105" height="16" viewBox="0 0 105 16" fill="none" xmlns="http://www.w3.org/2000/svg">
<path fill-rule="evenodd" clip-rule="evenodd" d="M97.7889 1.52405C93.8672 1.52405 90.5781 4.69859 90.5781 8.76201C90.5781 12.6985 93.7407 16 97.7889 16C101.711 16 105 12.8254 105 8.76201C105 4.69859 101.711 1.52405 97.7889 1.52405ZM101.205 9.01598L96.3973 11.8096C96.1443 11.9366 95.8913 11.8096 95.8913 11.5556V5.84143C95.8913 5.58747 96.1443 5.46049 96.3973 5.58747L101.205 8.38107C101.458 8.50805 101.458 8.88899 101.205 9.01598Z" fill="#42BFE9"/>
<path fill-rule="evenodd" clip-rule="evenodd" d="M0 12.1903C2.15058 11.9363 2.90961 8.25382 2.90961 3.04756V1.52378H1.64456V0H9.23484C10.1204 0 10.4999 0.253964 10.4999 1.14284V11.8093C10.4999 12.0633 10.6264 12.1903 10.8794 12.1903H11.6384V13.714H9.86736C8.98183 13.714 8.72882 13.3331 8.72882 12.5712V1.90473C8.72882 1.65076 8.60231 1.52378 8.34931 1.52378H4.68067V3.04756C4.68067 9.26967 3.54213 13.714 0 13.968V12.1903Z" fill="#04579F"/>
<path fill-rule="evenodd" clip-rule="evenodd" d="M27.4515 12.4442C28.8431 12.4442 30.1081 11.4284 30.1081 9.65062C30.1081 7.87287 28.9696 6.85702 27.578 6.85702C26.06 6.85702 24.9214 7.99985 24.9214 9.65062C24.9214 11.4284 26.06 12.4442 27.4515 12.4442ZM23.0239 8.25382C23.0239 5.20625 23.6564 3.42851 26.1865 2.28567L28.2106 1.3968C29.0961 1.01585 29.2226 0.888873 29.2226 0.380946V0H30.9937V0.761891C30.9937 2.03171 30.3611 2.28567 29.0961 2.7936L26.9455 3.80945C25.4275 4.44436 24.7949 5.71418 24.7949 7.11098C25.6805 5.71418 26.819 5.33324 27.9575 5.33324C30.2346 5.33324 31.8792 6.984 31.8792 9.65062C31.8792 12.3172 29.9816 14.095 27.4515 14.095C24.1624 13.968 23.0239 11.4284 23.0239 8.25382Z" fill="#04579F"/>
<path fill-rule="evenodd" clip-rule="evenodd" d="M32.8912 12.1903H33.3972C33.6502 12.1903 33.7768 12.0633 33.7768 11.8093L34.4093 4.44436H36.3068L38.7104 9.7776C38.9634 10.2855 39.2165 10.9204 39.2165 10.9204C39.2165 10.9204 39.4695 10.2855 39.7225 9.7776L42.1261 4.44436H44.0236L44.6562 11.8093C44.6562 12.0633 44.7827 12.1903 45.0357 12.1903H45.5417V13.714H44.1501C43.3911 13.714 43.1381 13.3331 43.1381 12.6982L42.7586 8.25382C42.7586 7.74589 42.7586 6.60306 42.7586 6.60306C42.7586 6.60306 42.5056 7.23797 42.2526 7.99986L40.102 12.5712H38.4574L36.3068 7.99986C36.0538 7.36495 35.8008 6.60306 35.8008 6.60306C35.8008 6.60306 35.8008 7.74589 35.8008 8.25382L35.2948 12.6982C35.2948 13.3331 35.0418 13.714 34.2828 13.714H32.8912V12.1903Z" fill="#04579F"/>
<path fill-rule="evenodd" clip-rule="evenodd" d="M62.8728 12.1903V6.34909C62.8728 6.09513 62.7463 5.96815 62.4933 5.96815H60.2162V6.34909C60.2162 7.61891 60.2162 10.4125 58.8247 12.1903H62.8728ZM56.8006 12.1903H56.9271C58.4451 10.4125 58.4451 7.74589 58.4451 6.34909V5.96815H57.3066V4.44436H63.3788C64.2644 4.44436 64.5174 4.82531 64.5174 5.5872V12.1903H64.7704C65.5294 12.1903 65.9089 12.5712 65.9089 13.3331V15.8727H64.2644V14.095C64.2644 13.841 64.1378 13.714 63.8848 13.714H57.5596C57.3066 13.714 57.1801 13.841 57.1801 14.095V15.8727H55.662V13.3331C55.662 12.5712 55.9151 12.1903 56.8006 12.1903Z" fill="#04579F"/>
<path fill-rule="evenodd" clip-rule="evenodd" d="M67.8065 6.34909C67.8065 6.09513 67.68 5.96815 67.427 5.96815H66.6679V4.44436H68.3125C69.198 4.44436 69.451 4.82531 69.451 5.5872V10.0316C69.451 10.5395 69.451 11.1744 69.3245 11.3014C69.451 11.1744 69.8306 10.4125 70.2101 10.0316L74.2582 4.44436H76.0293V11.8093C76.0293 12.0633 76.1558 12.1903 76.4088 12.1903H77.1678V13.714H75.5233C74.7642 13.714 74.3847 13.3331 74.3847 12.5712V8.12684C74.3847 7.61891 74.3847 6.984 74.5112 6.85702C74.3847 6.984 74.0052 7.74589 73.6257 8.12684L69.5775 13.714H67.8065V6.34909Z" fill="#04579F"/>
<path fill-rule="evenodd" clip-rule="evenodd" d="M82.1015 12.5712C83.6196 12.5712 84.6316 11.0474 84.6316 9.65062V9.26967H84.1256C82.734 9.26967 80.3305 9.39666 80.3305 11.0474C80.3305 11.8093 80.963 12.5712 82.1015 12.5712ZM84.1256 7.99986H84.5051V7.87287C84.5051 6.22211 83.8726 5.71418 82.481 5.71418C82.1015 5.5872 80.963 5.71418 80.963 6.34909V6.85702H79.3184V5.96815C79.3184 4.44437 81.5955 4.1904 82.481 4.1904C85.5171 4.1904 86.2762 5.71418 86.2762 7.87287V11.8093C86.2762 12.0633 86.4027 12.1903 86.6557 12.1903H87.4147V13.714H85.7702C84.8846 13.714 84.6316 13.3331 84.6316 12.6982C84.6316 12.3172 84.6316 12.1903 84.6316 12.1903C84.6316 12.1903 83.8726 13.968 81.5955 13.968C79.951 13.968 78.4329 12.9521 78.4329 11.1744C78.5594 8.12684 82.6075 7.99986 84.1256 7.99986Z" fill="#04579F"/>
<path fill-rule="evenodd" clip-rule="evenodd" d="M16.8251 12.5712C18.3432 12.5712 19.3552 11.0474 19.3552 9.65062V9.26967H18.8492C17.4576 9.26967 15.054 9.39666 15.054 11.0474C15.054 11.8093 15.6866 12.5712 16.8251 12.5712ZM18.8492 7.99986H19.2287V7.87287C19.2287 6.22211 18.5962 5.71418 17.2046 5.71418C16.8251 5.71418 15.6866 5.84117 15.6866 6.47607V6.984H14.042V5.96815C14.042 4.44437 16.3191 4.1904 17.2046 4.1904C20.2407 4.1904 21.1263 5.71418 21.1263 7.87287V11.8093C21.1263 12.0633 21.2528 12.1903 21.5058 12.1903H22.2648V13.714H20.6202C19.7347 13.714 19.4817 13.3331 19.4817 12.6982C19.4817 12.3172 19.4817 12.1903 19.4817 12.1903C19.4817 12.1903 18.7227 13.968 16.4456 13.968C14.801 13.968 13.283 12.9521 13.283 11.1744C13.283 8.12684 17.3311 7.99986 18.8492 7.99986Z" fill="#04579F"/>
<path fill-rule="evenodd" clip-rule="evenodd" d="M54.7765 8.63476C54.7765 6.22211 53.385 4.31738 50.7284 4.31738C48.0718 4.31738 46.0477 6.22211 46.0477 9.14269C46.0477 11.9363 48.0718 13.968 50.9814 13.968C52.2464 13.968 53.638 13.4601 54.5235 12.6982L53.7645 11.4284C53.0054 12.0633 51.9934 12.5712 50.9814 12.5712C48.9684 12.5712 47.6615 10.9331 47.828 8.88873C47.9557 7.31962 48.9424 5.5872 50.7284 5.5872C51.9934 5.5872 52.8789 6.47607 53.0054 8.12683H49.0838C48.9573 8.3808 48.9573 8.88873 48.9573 9.26967H54.65C54.7765 9.01571 54.7765 8.76174 54.7765 8.63476Z" fill="#04579F"/>
</svg>
