<svg width="40" height="40" viewBox="0 0 40 40" fill="none" xmlns="http://www.w3.org/2000/svg">
<path fill-rule="evenodd" clip-rule="evenodd" d="M31.4492 13.948C31.6161 13.4018 31.4492 13 30.6553 13H28.0296C27.3619 13 27.0543 13.3469 26.8873 13.7294C26.8873 13.7294 25.552 16.926 23.6605 19.0025C23.0487 19.6036 22.7705 19.795 22.4365 19.795C22.2698 19.795 22.0282 19.6036 22.0282 19.0574V13.948C22.0282 13.2925 21.8343 13 21.2779 13H17.152C16.7348 13 16.4838 13.3045 16.4838 13.5929C16.4838 14.2145 17.4297 14.358 17.5273 16.1065V19.9041C17.5273 20.7368 17.374 20.888 17.0402 20.888C16.1502 20.888 13.9849 17.6769 12.7009 14.0027C12.4491 13.2885 12.1968 13 11.5258 13H8.90012C8.1499 13 8 13.3469 8 13.7294C8 14.4124 8.88997 17.8004 12.1445 22.2812C14.3141 25.3411 17.371 27 20.1527 27C21.8216 27 22.0282 26.6314 22.0282 25.9969V23.6844C22.0282 22.9472 22.1862 22.8005 22.7149 22.8005C23.1041 22.8005 23.7718 22.9914 25.3297 24.4669C27.1099 26.2155 27.4033 27 28.4048 27H31.0305C31.7805 27 32.1555 26.6314 31.9393 25.9045C31.7023 25.1799 30.8524 24.1285 29.7247 22.8823C29.1126 22.1719 28.1945 21.407 27.9165 21.0242C27.5271 20.5327 27.6383 20.3141 27.9165 19.8769C27.9165 19.8769 31.1157 15.4507 31.4492 13.948Z" fill="#5380B8"/>
</svg>
