<svg width="1920" height="400" viewBox="0 0 1920 400" fill="none" xmlns="http://www.w3.org/2000/svg">
<rect x="1.67634" y="0.460953" width="365" height="229" transform="matrix(0.969231 -0.246153 0.707107 0.707107 49.7256 475.886)" fill="#122841" stroke="#FD6060" stroke-width="2"/>
<rect x="1.67634" y="0.460953" width="365" height="229" transform="matrix(0.969231 -0.246153 0.707107 0.707107 99.7256 451.886)" fill="#122841" stroke="#FD6060" stroke-width="2"/>
<rect x="1.67634" y="0.460953" width="365" height="229" transform="matrix(0.969231 -0.246153 0.707107 0.707107 149.726 427.886)" fill="#122841" stroke="#FD6060" stroke-width="2"/>
<rect x="1.67634" y="0.460953" width="365" height="229" transform="matrix(0.969231 -0.246153 0.707107 0.707107 199.726 403.886)" fill="#122841" stroke="#FD6060" stroke-width="2"/>
<rect x="1.67634" y="0.460953" width="365" height="229" transform="matrix(0.969231 -0.246153 0.707107 0.707107 249.726 379.886)" fill="#122841" stroke="#FD6060" stroke-width="2"/>
<rect x="1.67634" y="0.460953" width="365" height="229" transform="matrix(0.969231 -0.246153 0.707107 0.707107 299.726 355.886)" fill="#122841" stroke="#FD6060" stroke-width="2"/>
<rect x="1.67634" y="0.460953" width="365" height="229" transform="matrix(0.969231 -0.246153 0.707107 0.707107 349.726 331.886)" fill="#122841" stroke="#FD6060" stroke-width="2"/>
<rect x="1.67634" y="0.460953" width="365" height="229" transform="matrix(0.969231 -0.246153 0.707107 0.707107 399.726 307.886)" fill="#122841" stroke="#FD6060" stroke-width="2"/>
<rect x="1.67634" y="0.460953" width="365" height="229" transform="matrix(0.969231 -0.246153 0.707107 0.707107 449.726 283.886)" fill="#122841" stroke="#FD6060" stroke-width="2"/>
<rect x="1.67634" y="0.460953" width="365" height="229" transform="matrix(0.969231 -0.246153 0.707107 0.707107 499.726 259.886)" fill="#122841" stroke="#FD6060" stroke-width="2"/>
<rect x="1.67634" y="0.460953" width="365" height="229" transform="matrix(0.969231 -0.246153 0.707107 0.707107 549.726 235.886)" fill="#122841" stroke="#FD6060" stroke-width="2"/>
<rect x="1.67634" y="0.460953" width="365" height="229" transform="matrix(0.969231 -0.246153 0.707107 0.707107 599.726 211.886)" fill="#122841" stroke="#FD6060" stroke-width="2"/>
<rect x="1.67634" y="0.460953" width="365" height="229" transform="matrix(0.969231 -0.246153 0.707107 0.707107 649.726 187.886)" fill="#122841" stroke="#FD6060" stroke-width="2"/>
<rect x="1.67634" y="0.460953" width="365" height="229" transform="matrix(0.969231 -0.246153 0.707107 0.707107 699.726 163.886)" fill="#122841" stroke="#FD6060" stroke-width="2"/>
<rect x="1.67634" y="0.460953" width="365" height="229" transform="matrix(0.969231 -0.246153 0.707107 0.707107 749.726 139.886)" fill="#122841" stroke="#FD6060" stroke-width="2"/>
<rect x="1.67634" y="0.460953" width="365" height="229" transform="matrix(0.969231 -0.246153 0.707107 0.707107 799.726 115.886)" fill="#122841" stroke="#FD6060" stroke-width="2"/>
<rect x="1.67634" y="0.460953" width="365" height="229" transform="matrix(0.969231 -0.246153 0.707107 0.707107 849.726 91.886)" fill="#122841" stroke="#FD6060" stroke-width="2"/>
<rect x="1.67634" y="0.460953" width="365" height="229" transform="matrix(0.969231 -0.246153 0.707107 0.707107 899.726 67.886)" fill="#122841" stroke="#FD6060" stroke-width="2"/>
<rect x="1.67634" y="0.460953" width="365" height="229" transform="matrix(0.969231 -0.246153 0.707107 0.707107 949.726 43.886)" fill="#122841" stroke="#FD6060" stroke-width="2"/>
<rect x="1.67634" y="0.460953" width="365" height="229" transform="matrix(0.969231 -0.246153 0.707107 0.707107 999.726 19.886)" fill="#122841" stroke="#FD6060" stroke-width="2"/>
<rect x="1.67634" y="0.460953" width="365" height="229" transform="matrix(0.969231 -0.246153 0.707107 0.707107 1049.73 -4.11397)" fill="#122841" stroke="#FD6060" stroke-width="2"/>
<rect x="1.67634" y="0.460953" width="365" height="229" transform="matrix(0.969231 -0.246153 0.707107 0.707107 1099.73 -28.114)" fill="#122841" stroke="#FD6060" stroke-width="2"/>
<rect x="1.67634" y="0.460953" width="365" height="229" transform="matrix(0.969231 -0.246153 0.707107 0.707107 1149.73 -52.114)" fill="#122841" stroke="#FD6060" stroke-width="2"/>
<rect x="1.67634" y="0.460953" width="365" height="229" transform="matrix(0.969231 -0.246153 0.707107 0.707107 1199.73 -76.114)" fill="#122841" stroke="#FD6060" stroke-width="2"/>
<rect x="1.67634" y="0.460953" width="365" height="229" transform="matrix(0.969231 -0.246153 0.707107 0.707107 1249.73 -100.114)" fill="#122841" stroke="#FD6060" stroke-width="2"/>
<rect x="1.67634" y="0.460953" width="365" height="229" transform="matrix(0.969231 -0.246153 0.707107 0.707107 1299.73 -124.114)" fill="#122841" stroke="#FD6060" stroke-width="2"/>
<rect x="1.67634" y="0.460953" width="365" height="229" transform="matrix(0.969231 -0.246153 0.707107 0.707107 1349.73 -148.114)" fill="#122841" stroke="#FD6060" stroke-width="2"/>
</svg>
