<svg width="48" height="48" viewBox="0 0 48 48" fill="none" xmlns="http://www.w3.org/2000/svg">
<path d="M19.3677 47.7233C15.1693 46.8552 11.2517 44.9188 8.17621 42.1914C0.280633 35.1896 -2.15953 24.1903 2.01153 14.4033C3.03583 11.9998 4.70107 9.56071 6.76436 7.44167L8.58338 5.57348L8.71168 16.5079C8.83448 26.9741 8.86216 27.5014 9.358 28.8203C10.35 31.4588 11.4134 33.1387 13.2441 34.9592C17.9732 39.6617 24.9098 40.8353 30.8065 37.9306C36.3491 35.2003 39.8433 29.2637 39.4372 23.2671C39.1645 19.2392 37.8078 16.2855 34.8788 13.3426C32.664 11.1173 30.0582 9.6638 27.2213 9.07111C24.3349 8.4681 24.4734 8.37999 24.4734 10.8194V12.9255L26.0558 13.2166C32.184 14.344 36.237 20.3527 34.9597 26.4166C34.5517 28.3534 33.6417 30.0636 32.181 31.639C29.9611 34.0331 26.8378 35.1775 24.1107 35.1722C19.6014 35.1636 15.8361 32.605 14.0111 28.8215C14.0111 28.8215 13.533 27.74 13.3794 27.0717C12.4759 23.1416 13.0534 14.8684 13.0534 14.8684L12.9834 2.77157L13.6987 2.40229C14.092 2.19918 14.4693 2.033 14.537 2.033C14.6048 2.033 14.6907 7.58906 14.7281 14.3798C14.7281 14.3798 13.8596 23.2815 14.9329 26.6928C15.0877 27.185 15.3817 28.0268 15.3817 28.0268C16.3225 29.9407 17.8305 31.6243 19.7897 32.5509C21.277 33.2543 22.0259 33.5727 24.2262 33.5727C25.6638 33.5727 26.9374 33.1196 28.4029 32.4466C30.1304 31.6533 32.1121 29.55 32.8444 27.6295C34.862 22.3385 32.0526 16.646 26.6403 15.0587C24.4283 14.4099 24.4734 14.3742 24.4734 16.7758V18.8736L25.5352 19.1572C29.3625 20.1793 30.5303 25.3014 27.5258 27.9334C26.4642 28.8633 25.5077 29.2743 23.8344 29.2743C22.0465 29.2743 20.3302 28.1937 19.4479 26.5364C18.9179 25.5409 18.8732 24.5965 18.8732 24.164C18.8732 20.169 18.7865 12.984 18.7865 12.984L18.7149 0.659151L19.2644 0.522882C19.5666 0.447933 20.7881 0.26248 21.9788 0.110764C26.017 -0.403772 31.9912 0.915754 36.0048 3.20867C41.4767 6.33472 45.617 11.7048 47.3409 17.9118C47.9339 20.0468 48 20.6676 48 24.1022C48 27.5214 47.9324 28.1627 47.352 30.2511C45.0073 38.6871 39.043 44.7177 30.5149 47.2753C28.7201 47.8136 27.8793 47.9163 24.7123 47.9837C22.1565 48.0381 20.5001 47.9574 19.3677 47.7233Z" fill="#C60C30"/>
</svg>
