<svg width="1920" height="400" viewBox="0 0 1920 400" fill="none" xmlns="http://www.w3.org/2000/svg">
<mask id="mask0" mask-type="alpha" maskUnits="userSpaceOnUse" x="0" y="0" width="1920" height="400">
<rect width="1920" height="400" fill="#122841"/>
</mask>
<g mask="url(#mask0)">
<circle cx="1453" cy="208" r="8" fill="#017FF3"/>
<circle cx="1656" cy="113" r="50" fill="#017FF3"/>
<circle cx="1859" cy="79" r="20" fill="#017FF3"/>
<circle cx="1552" cy="59" r="20" fill="#017FF3"/>
<circle cx="1386" cy="9" r="31" fill="#017FF3"/>
<circle cx="1122.5" cy="8.5" r="23.5" fill="#017FF3"/>
<circle cx="970" cy="249" r="41" fill="#017FF3"/>
<circle cx="1105" cy="245" r="12" fill="#017FF3"/>
<circle cx="862.5" cy="341.5" r="17.5" fill="#017FF3"/>
<circle cx="348.5" cy="248.5" r="53.5" fill="#017FF3"/>
<circle cx="35" cy="39" r="74" fill="#017FF3"/>
<circle cx="181.5" cy="281.5" r="24.5" fill="#017FF3"/>
<circle cx="289.5" cy="79.5" r="24.5" fill="#017FF3"/>
<circle cx="546" cy="299" r="42" fill="#017FF3"/>
<circle cx="615.5" cy="70.5" r="26.5" fill="#017FF3"/>
<circle cx="1702" cy="366" r="96" fill="#017FF3"/>
<path d="M1858 78.5L1700.5 367L1655.5 108L1550.5 55.5L1455 208L1286.5 323L1384 15L1279 -81.5L1114 15L1242.5 317L1104 246H970L864.5 345L548 299.5L339.5 246L180.5 280L27.5 39.5" stroke="#017FF3" stroke-width="2"/>
<path d="M612 71L966 249.5L1256 317L1546.5 57.5" stroke="#017FF3" stroke-width="2"/>
<path d="M1859.5 78.5L1306 345L1651.5 114" stroke="#017FF3" stroke-width="2"/>
<path d="M1212 361L862.5 341L289 79.5L38.5 40.5" stroke="#017FF3" stroke-width="2"/>
<path fill-rule="evenodd" clip-rule="evenodd" d="M1277.5 224C1178.25 224 1095 304.044 1095 406.5C1095 505.754 1175.04 589 1277.5 589C1376.75 589 1460 508.956 1460 406.5C1460 304.044 1376.75 224 1277.5 224ZM1363.95 412.903L1242.28 483.342C1235.88 486.544 1229.47 483.342 1229.47 476.939V332.86C1229.47 326.456 1235.88 323.254 1242.28 326.456L1363.95 396.895C1370.35 400.096 1370.35 409.702 1363.95 412.903Z" fill="#017FF3"/>
</g>
</svg>
