<svg width="100" height="80" viewBox="0 0 100 80" fill="none" xmlns="http://www.w3.org/2000/svg">
<path fill-rule="evenodd" clip-rule="evenodd" d="M29.0588 39.1064L38.9573 3H21.8465L9.0696 35.0204L9.05863 35.0465C6.42634 41.2984 4.79504 45.8241 4.07752 48.7212C3.35718 51.6297 3 54.5249 3 57.4118C3 63.2898 4.84005 67.9072 8.40581 71.5164C12.149 75.1505 16.8112 77 22.6107 77C28.4438 77 33.0172 75.2072 36.5834 71.7508C40.1348 68.1554 41.9883 63.4678 41.9883 57.4118C41.9883 53.1833 41.0167 49.6784 39.1872 46.7764C37.3425 43.8503 34.782 41.6484 31.4163 40.1535L29.0588 39.1064ZM38.6946 73.8824C34.4988 77.9608 29.1375 80 22.6107 80C16.0839 80 10.6449 77.8824 6.29371 73.6471C2.0979 69.4118 0 64 0 57.4118C0 54.2745 0.3885 51.1373 1.1655 48C1.9425 44.8627 3.6519 40.1569 6.29371 33.8823L19.8135 0H42.8904L32.634 37.4118C36.519 39.1373 39.5493 41.7255 41.7249 45.1765C43.9005 48.6275 44.9883 52.7059 44.9883 57.4118C44.9883 64.1569 42.8904 69.6471 38.6946 73.8824ZM84.0704 39.1064L93.969 3H76.8581L64.0813 35.0204L64.0703 35.0465C61.438 41.2984 59.8067 45.8241 59.0892 48.7212C58.3688 51.6297 58.0117 54.5249 58.0117 57.4118C58.0117 63.2897 59.8517 67.9072 63.4174 71.5163C67.1607 75.1505 71.8229 77 77.6224 77C83.4554 77 88.0287 75.2073 91.5949 71.7509C95.1464 68.1555 97 63.4679 97 57.4118C97 53.1833 96.0284 49.6784 94.1988 46.7764C92.3542 43.8503 89.7937 41.6484 86.428 40.1535L84.0704 39.1064ZM93.7063 73.8824C89.5105 77.9608 84.1492 80 77.6224 80C71.0956 80 65.6566 77.8824 61.3054 73.6471C57.1096 69.4118 55.0117 64 55.0117 57.4118C55.0117 54.2745 55.4002 51.1373 56.1772 48C56.9542 44.8627 58.6636 40.1569 61.3054 33.8823L74.8252 0H97.9021L87.6457 37.4118C91.5307 39.1373 94.561 41.7255 96.7366 45.1765C98.9122 48.6275 100 52.7059 100 57.4118C100 64.1569 97.9021 69.6471 93.7063 73.8824Z" fill="#0066FF"/>
</svg>
