<svg width="100" height="80" viewBox="0 0 100 80" fill="none" xmlns="http://www.w3.org/2000/svg">
<path d="M31.1874 37.0152L30.8464 38.2591L32.0252 38.7826C35.6505 40.3928 38.4459 42.7879 40.4561 45.9764C42.4586 49.1529 43.4883 52.9446 43.4883 57.4118C43.4883 63.8125 41.5126 68.9012 37.6391 72.8165C33.7581 76.5839 28.7908 78.5 22.6107 78.5C16.4474 78.5 11.3969 76.5164 7.34967 72.5816C3.469 68.6594 1.5 63.645 1.5 57.4118C1.5 54.3997 1.87284 51.3835 2.62151 48.3606C3.36877 45.3434 5.03912 40.7276 7.67617 34.4644L7.68165 34.4514L7.68689 34.4383L20.83 1.5H40.9239L31.1874 37.0152ZM86.1991 37.0152L85.858 38.2591L87.0368 38.7826C90.6622 40.3928 93.4576 42.7879 95.4677 45.9764C97.4703 49.1529 98.5 52.9446 98.5 57.4118C98.5 63.8124 96.5242 68.9012 92.6508 72.8164C88.7698 76.5839 83.8025 78.5 77.6224 78.5C71.4591 78.5 66.4086 76.5164 62.3613 72.5816C58.4807 68.6594 56.5117 63.645 56.5117 57.4118C56.5117 54.3997 56.8845 51.3835 57.6332 48.3606C58.3804 45.3434 60.0508 40.7276 62.6878 34.4644L62.6933 34.4514L62.6985 34.4383L75.8416 1.5H95.9355L86.1991 37.0152Z" stroke="#0E1271" stroke-width="3"/>
</svg>
