<svg width="40" height="40" viewBox="0 0 40 40" fill="none" xmlns="http://www.w3.org/2000/svg">
<path d="M29.5635 15.1923C29.3325 14.3333 28.6521 13.6538 27.792 13.4231C26.2388 13 19.9872 13 19.9872 13C19.9872 13 13.7356 13.0128 12.1823 13.4359C11.3222 13.6667 10.6418 14.3462 10.4108 15.2051C10 16.7564 10 20 10 20C10 20 10 23.2436 10.4236 24.8077C10.6547 25.6667 11.335 26.3462 12.1951 26.5769C13.7484 27 20 27 20 27C20 27 26.2516 27 27.8049 26.5769C28.665 26.3462 29.3453 25.6667 29.5764 24.8077C30 23.2564 30 20 30 20C30 20 29.9872 16.7564 29.5635 15.1923Z" fill="#FE0000"/>
<path d="M17.9971 23L23.1832 20L17.9971 17V23Z" fill="white"/>
</svg>
